<svg width="20" height="20" viewBox="0 0 20 20" fill="none" xmlns="http://www.w3.org/2000/svg">
<mask id="mask0_55_86" style="mask-type:alpha" maskUnits="userSpaceOnUse" x="-2" y="-2" width="24" height="24">
<rect x="-2" y="-2" width="24" height="24" fill="#D9D9D9"/>
</mask>
<g mask="url(#mask0_55_86)">
<path d="M8 18H12V16.9L13.25 16.4C14.3333 15.9667 15.2542 15.3625 16.0125 14.5875C16.7708 13.8125 17.3167 12.95 17.65 12H2.35C2.68333 12.95 3.225 13.8125 3.975 14.5875C4.725 15.3625 5.65 15.9667 6.75 16.4L8 16.9V18ZM6 20V18.25C4.21667 17.55 2.77083 16.4667 1.6625 15C0.554167 13.5333 0 11.8667 0 10H2V2L20 0V1.5L8.5 2.8V4.5H20V6H8.5V10H20C20 11.8667 19.4458 13.5333 18.3375 15C17.2292 16.4667 15.7833 17.55 14 18.25V20H6ZM6 4.5H7V2.95L6 3.075V4.5ZM3.5 4.5H4.5V3.25L3.5 3.35V4.5ZM6 10H7V6H6V10ZM3.5 10H4.5V6H3.5V10Z" fill="white"/>
</g>
</svg>
