<svg width="43" height="40" viewBox="0 0 43 40" fill="none" xmlns="http://www.w3.org/2000/svg">
<mask id="mask0_55_572" style="mask-type:alpha" maskUnits="userSpaceOnUse" x="-2" y="-3" width="47" height="47">
<rect x="-1.9513" y="-2.92683" width="46.8293" height="46.8293" fill="#D9D9D9"/>
</mask>
<g mask="url(#mask0_55_572)">
<path d="M17.561 40V36.0976H42.9269V40H17.561ZM19.5122 34.1464C19.5122 31.5122 20.3415 29.2114 22 27.2439C23.6586 25.2765 25.7561 24.0651 28.2927 23.6098V22.3903C28.2927 21.8374 28.4797 21.374 28.8537 21C29.2277 20.626 29.6911 20.439 30.2439 20.439C30.7968 20.439 31.2602 20.626 31.6342 21C32.0082 21.374 32.1952 21.8374 32.1952 22.3903V23.6098C34.6992 24.0651 36.7887 25.2765 38.4635 27.2439C40.1383 29.2114 40.9757 31.5122 40.9757 34.1464H19.5122ZM24.6342 30.1952H35.7561C35.1383 29.3171 34.3496 28.6098 33.3903 28.0732C32.4309 27.5366 31.3821 27.2683 30.2439 27.2683C29.0732 27.2683 28 27.5366 27.0244 28.0732C26.0488 28.6098 25.2521 29.3171 24.6342 30.1952ZM0 22.439V0.975611H11.7073V3.80488L25.3659 0L40.9757 4.87805V6.82928C40.9757 8.45529 40.4065 9.83741 39.2683 10.9756C38.1301 12.1138 36.748 12.6829 35.122 12.6829H31.2195V13.8537C31.2195 14.6667 30.9838 15.4065 30.5122 16.0732C30.0407 16.7399 29.4309 17.2195 28.683 17.5122L15.5122 22.439H0ZM3.90244 18.5366H7.80489V4.87805H3.90244V18.5366ZM11.7073 18.5366H14.8293L26.1464 14.3903C26.5041 14.2602 26.7886 14.0407 27 13.7317C27.2114 13.4228 27.3171 13.0732 27.3171 12.6829H23.8537L18.1464 14.5366L16.9756 10.8293L23.0732 8.7805H35.122C35.4147 8.7805 35.7805 8.67481 36.2195 8.46342C36.6586 8.25204 36.8781 8.00001 36.8781 7.70733L25.2683 4.09757L11.7073 7.80489V18.5366Z" fill="#9AB79F"/>
</g>
</svg>
