<svg width="45" height="45" viewBox="0 0 45 45" fill="none" xmlns="http://www.w3.org/2000/svg">
<path d="M16.3433 44.7761L15.4478 37.6119C14.9627 37.4254 14.5056 37.2015 14.0765 36.9403C13.6474 36.6791 13.2276 36.3993 12.8172 36.1007L6.15672 38.8993L0 28.2649L5.76493 23.8993C5.72761 23.6381 5.70896 23.3862 5.70896 23.1437V21.6325C5.70896 21.3899 5.72761 21.1381 5.76493 20.8769L0 16.5112L6.15672 5.87687L12.8172 8.67537C13.2276 8.37687 13.6567 8.09701 14.1045 7.83582C14.5522 7.57463 15 7.35075 15.4478 7.16418L16.3433 0H28.6567L29.5522 7.16418C30.0373 7.35075 30.4944 7.57463 30.9235 7.83582C31.3526 8.09701 31.7724 8.37687 32.1828 8.67537L38.8433 5.87687L45 16.5112L39.2351 20.8769C39.2724 21.1381 39.291 21.3899 39.291 21.6325V23.1437C39.291 23.3862 39.2537 23.6381 39.1791 23.8993L44.944 28.2649L38.7873 38.8993L32.1828 36.1007C31.7724 36.3993 31.3433 36.6791 30.8955 36.9403C30.4478 37.2015 30 37.4254 29.5522 37.6119L28.6567 44.7761H16.3433ZM20.2612 40.2985H24.6828L25.4664 34.3657C26.6231 34.0672 27.6959 33.6287 28.6847 33.0504C29.6735 32.472 30.5784 31.7724 31.3993 30.9515L36.9403 33.2463L39.1231 29.4403L34.3097 25.8022C34.4963 25.2799 34.6269 24.7295 34.7015 24.1511C34.7761 23.5728 34.8134 22.9851 34.8134 22.3881C34.8134 21.791 34.7761 21.2034 34.7015 20.625C34.6269 20.0466 34.4963 19.4963 34.3097 18.9739L39.1231 15.3358L36.9403 11.5299L31.3993 13.8806C30.5784 13.0224 29.6735 12.3041 28.6847 11.7257C27.6959 11.1474 26.6231 10.709 25.4664 10.4104L24.7388 4.47761H20.3172L19.5336 10.4104C18.3769 10.709 17.3041 11.1474 16.3153 11.7257C15.3265 12.3041 14.4216 13.0037 13.6007 13.8246L8.0597 11.5299L5.87687 15.3358L10.6903 18.9179C10.5037 19.4776 10.3731 20.0373 10.2985 20.597C10.2239 21.1567 10.1866 21.7537 10.1866 22.3881C10.1866 22.9851 10.2239 23.5634 10.2985 24.1231C10.3731 24.6828 10.5037 25.2425 10.6903 25.8022L5.87687 29.4403L8.0597 33.2463L13.6007 30.8955C14.4216 31.7537 15.3265 32.472 16.3153 33.0504C17.3041 33.6287 18.3769 34.0672 19.5336 34.3657L20.2612 40.2985ZM22.6119 30.2239C24.7761 30.2239 26.6231 29.459 28.153 27.9291C29.6828 26.3993 30.4478 24.5522 30.4478 22.3881C30.4478 20.2239 29.6828 18.3769 28.153 16.847C26.6231 15.3172 24.7761 14.5522 22.6119 14.5522C20.4104 14.5522 18.5541 15.3172 17.0429 16.847C15.5317 18.3769 14.7761 20.2239 14.7761 22.3881C14.7761 24.5522 15.5317 26.3993 17.0429 27.9291C18.5541 29.459 20.4104 30.2239 22.6119 30.2239Z" fill="white"/>
</svg>
