<svg width="37" height="34" viewBox="0 0 37 34" fill="none" xmlns="http://www.w3.org/2000/svg">
<mask id="mask0_55_1065" style="mask-type:alpha" maskUnits="userSpaceOnUse" x="-4" y="-4" width="41" height="41">
<rect x="-3.36363" y="-3.36355" width="40.3636" height="40.3636" fill="#D9D9D9"/>
</mask>
<g mask="url(#mask0_55_1065)">
<path d="M3.36364 33.6364C2.43864 33.6364 1.64678 33.307 0.988068 32.6483C0.329356 31.9896 0 31.1977 0 30.2727V3.36364C0 2.43864 0.329356 1.64678 0.988068 0.988068C1.64678 0.329356 2.43864 0 3.36364 0H16.8182L26.9091 10.0909V17.2386H23.5455V11.7727H15.1364V3.36364H3.36364V30.2727H21.8636V33.6364H3.36364ZM5.04545 28.5909C5.15758 27.2174 5.57803 25.9561 6.30682 24.8068C7.03561 23.6576 7.98864 22.7466 9.16591 22.0739L7.56818 19.2148C7.56818 19.1867 7.62424 18.9765 7.73636 18.5841C7.87651 18.528 8.00966 18.5 8.1358 18.5C8.26193 18.5 8.35303 18.5701 8.40909 18.7102L10.0489 21.6534C10.6095 21.4292 11.1701 21.254 11.7307 21.1278C12.2913 21.0017 12.8659 20.9386 13.4545 20.9386C14.0432 20.9386 14.6178 21.0017 15.1784 21.1278C15.739 21.254 16.2996 21.4292 16.8602 21.6534L18.5 18.7102L19.1307 18.542C19.2708 18.5981 19.3549 18.6962 19.383 18.8364C19.411 18.9765 19.397 19.1026 19.3409 19.2148L17.7432 22.0739C18.9205 22.7466 19.8735 23.6576 20.6023 24.8068C21.3311 25.9561 21.7515 27.2174 21.8636 28.5909H5.04545ZM9.67045 26.0682C9.8947 26.0682 10.0909 25.9841 10.2591 25.8159C10.4273 25.6477 10.5114 25.4515 10.5114 25.2273C10.5114 25.003 10.4273 24.8068 10.2591 24.6386C10.0909 24.4705 9.8947 24.3864 9.67045 24.3864C9.44621 24.3864 9.25 24.4705 9.08182 24.6386C8.91364 24.8068 8.82954 25.003 8.82954 25.2273C8.82954 25.4515 8.91364 25.6477 9.08182 25.8159C9.25 25.9841 9.44621 26.0682 9.67045 26.0682ZM17.2386 26.0682C17.4629 26.0682 17.6591 25.9841 17.8273 25.8159C17.9955 25.6477 18.0795 25.4515 18.0795 25.2273C18.0795 25.003 17.9955 24.8068 17.8273 24.6386C17.6591 24.4705 17.4629 24.3864 17.2386 24.3864C17.0144 24.3864 16.8182 24.4705 16.65 24.6386C16.4818 24.8068 16.3977 25.003 16.3977 25.2273C16.3977 25.4515 16.4818 25.6477 16.65 25.8159C16.8182 25.9841 17.0144 26.0682 17.2386 26.0682ZM30.2727 33.6364L23.5455 26.9091L25.9 24.5125L28.5909 27.1614V20.1818H31.9545V27.1614L34.6455 24.5125L37 26.9091L30.2727 33.6364Z" fill="#1C1B1F"/>
</g>
</svg>
