<svg width="12" height="12" viewBox="0 0 12 12" fill="none" xmlns="http://www.w3.org/2000/svg">
<mask id="mask0_55_498" style="mask-type:alpha" maskUnits="userSpaceOnUse" x="-2" y="-2" width="16" height="16">
<rect x="-1.5" y="-1.5" width="15" height="15" fill="#D9D9D9" stroke="black"/>
</mask>
<g mask="url(#mask0_55_498)">
<path d="M0.833333 10.6667V11.1667H1.33333H2.28333H2.49044L2.63689 11.0202L9.15355 4.50355L9.50711 4.15L9.15355 3.79645L8.20355 2.84645L7.85 2.49289L7.49645 2.84645L0.97978 9.36311L0.833333 9.50956V9.71667V10.6667ZM10.3314 0.737862L10.3372 0.74421L10.3433 0.750354L11.2599 1.68369L11.2691 1.69305L11.2788 1.70191C11.3544 1.77117 11.4058 1.84865 11.4389 1.93879C11.4811 2.05394 11.5 2.16245 11.5 2.26667C11.5 2.38581 11.4798 2.49501 11.4408 2.59767C11.4071 2.68662 11.3512 2.77504 11.2631 2.86311L2.62623 11.5H0.5V9.37405L9.14502 0.745407C9.23485 0.664458 9.33044 0.604382 9.43284 0.562008C9.53213 0.520923 9.63651 0.5 9.75 0.5C9.86354 0.5 9.97278 0.52096 10.081 0.564238C10.1774 0.602817 10.2595 0.659406 10.3314 0.737862Z" fill="#1C1B1F" stroke="black"/>
</g>
</svg>
